<?xml version="1.0" encoding="UTF-8" standalone="no"?>
<!-- Created with Inkscape (http://www.inkscape.org/) -->

<svg
   xmlns:dc="http://purl.org/dc/elements/1.1/"
   xmlns:cc="http://creativecommons.org/ns#"
   xmlns:rdf="http://www.w3.org/1999/02/22-rdf-syntax-ns#"
   xmlns:svg="http://www.w3.org/2000/svg"
   xmlns="http://www.w3.org/2000/svg"
   xmlns:sodipodi="http://sodipodi.sourceforge.net/DTD/sodipodi-0.dtd"
   xmlns:inkscape="http://www.inkscape.org/namespaces/inkscape"
   id="svg3177"
   version="1.1"
   inkscape:version="0.48.4 r9939"
   width="524.4095"
   height="372.04725"
   xml:space="preserve"
   sodipodi:docname="FreeArt_treasurchest.pdf"><metadata
     id="metadata3183"><rdf:RDF><cc:Work
         rdf:about=""><dc:format>image/svg+xml</dc:format><dc:type
           rdf:resource="http://purl.org/dc/dcmitype/StillImage" /><dc:title></dc:title></cc:Work></rdf:RDF></metadata><defs
     id="defs3181" /><sodipodi:namedview
     pagecolor="#ffffff"
     bordercolor="#666666"
     borderopacity="1"
     objecttolerance="10"
     gridtolerance="10"
     guidetolerance="10"
     inkscape:pageopacity="0"
     inkscape:pageshadow="2"
     inkscape:window-width="640"
     inkscape:window-height="480"
     id="namedview3179"
     showgrid="false"
     inkscape:zoom="0.70122983"
     inkscape:cx="262.20474"
     inkscape:cy="186.02362"
     inkscape:window-x="0"
     inkscape:window-y="0"
     inkscape:window-maximized="0"
     inkscape:current-layer="g3185" /><g
     id="g3185"
     inkscape:groupmode="layer"
     inkscape:label="FreeArt_treasurchest"
     transform="matrix(1.25,0,0,-1.25,0,372.04725)"><path
       d="m 40.4949,186.3539 92.0058,0 0,-78.3145 -92.0058,0 0,78.3145 z"
       style="fill:#996633;fill-opacity:1;fill-rule:evenodd;stroke:#000000;stroke-opacity:1;stroke-width:2.8346;stroke-linecap:butt;stroke-linejoin:miter;stroke-miterlimit:22.92558563;stroke-dasharray:none"
       id="path3187" /><path
       d="m 50.0247,122.2396 74.3244,0 0,-12.9779 -74.3244,0 0,12.9779 z"
       style="fill:#805224;fill-opacity:1;fill-rule:evenodd;stroke:none"
       id="path3189" /><path
       d="m 50.0247,131.9071 74.3244,0 0,-6.0729 -74.3244,0 0,6.0729 z"
       style="fill:#805224;fill-opacity:1;fill-rule:evenodd;stroke:none"
       id="path3191" /><path
       d="m 50.0247,166.8932 74.3244,0 0,-7.0243 -74.3244,0 0,7.0243 z"
       style="fill:#805224;fill-opacity:1;fill-rule:evenodd;stroke:none"
       id="path3193" /><path
       d="m 40.4949,189.0921 10.9794,0 0,-83.791 -10.9794,0 0,83.791 z"
       style="fill:#ffcc00;fill-opacity:1;fill-rule:evenodd;stroke:#000000;stroke-opacity:1;stroke-width:2.8346;stroke-linecap:butt;stroke-linejoin:miter;stroke-miterlimit:22.92558563;stroke-dasharray:none"
       id="path3195" /><path
       d="m 123.1906,189.0921 10.9794,0 0,-83.791 -10.9794,0 0,83.791 z"
       style="fill:#ffcc00;fill-opacity:1;fill-rule:evenodd;stroke:#000000;stroke-opacity:1;stroke-width:2.8346;stroke-linecap:butt;stroke-linejoin:miter;stroke-miterlimit:22.92558563;stroke-dasharray:none"
       id="path3197" /><path
       d="m 41.6126,154.368 92.0693,0 0,-11.5007 -92.0693,0 0,11.5007 z"
       style="fill:#3d1f00;fill-opacity:0.5;fill-rule:evenodd;stroke:#3d1f00;stroke-opacity:0.5;stroke-width:2.8346;stroke-linecap:butt;stroke-linejoin:miter;stroke-miterlimit:22.92558563;stroke-dasharray:none"
       id="path3199" /><path
       d="m 36.6613,158.9712 99.673,0 0,-11.5007 -99.673,0 0,11.5007 z"
       style="fill:#ffcc00;fill-opacity:1;fill-rule:evenodd;stroke:#000000;stroke-opacity:1;stroke-width:2.8346;stroke-linecap:butt;stroke-linejoin:miter;stroke-miterlimit:22.92558563;stroke-dasharray:none"
       id="path3201" /><path
       d="m 38.0959,124.501 c 13.453,-0.9141 19.4613,-8.8815 19.1999,-19.1999 l -19.1999,0 0,19.1999 z"
       style="fill:#ffcc00;fill-opacity:1;fill-rule:evenodd;stroke:#000000;stroke-opacity:1;stroke-width:2.8346;stroke-linecap:round;stroke-linejoin:round;stroke-miterlimit:22.92558563;stroke-dasharray:none"
       id="path3203" /><path
       d="m 136.5182,124.501 c -13.4529,-0.9141 -19.4612,-8.8815 -19.1999,-19.1999 l 19.1999,0 0,19.1999 z"
       style="fill:#ffcc00;fill-opacity:1;fill-rule:evenodd;stroke:#000000;stroke-opacity:1;stroke-width:2.8346;stroke-linecap:round;stroke-linejoin:round;stroke-miterlimit:22.92558563;stroke-dasharray:none"
       id="path3205" /><path
       d="m 46.0899,116.3506 c 1.512,0 2.7383,-1.2263 2.7383,-2.7383 0,-1.512 -1.2263,-2.7383 -2.7383,-2.7383 -1.512,0 -2.7382,1.2263 -2.7382,2.7383 0,1.512 1.2262,2.7383 2.7382,2.7383"
       style="fill:#000000;fill-opacity:1;fill-rule:evenodd;stroke:none"
       id="path3207" /><path
       d="m 128.5118,116.3506 c 1.512,0 2.7382,-1.2263 2.7382,-2.7383 0,-1.512 -1.2262,-2.7383 -2.7382,-2.7383 -1.512,0 -2.7383,1.2263 -2.7383,2.7383 0,1.512 1.2263,2.7383 2.7383,2.7383"
       style="fill:#000000;fill-opacity:1;fill-rule:evenodd;stroke:none"
       id="path3209" /><path
       d="m 53.8118,183.9263 66.7502,0 0,-6.4449 -66.7502,0 0,6.4449 z"
       style="fill:#c28545;fill-opacity:1;fill-rule:evenodd;stroke:none"
       id="path3211" /><path
       d="m 72.618,160.3627 7.2014,0 0,1.1143 c 0,3.6734 3.005,6.6784 6.6784,6.6784 l 0,0 c 3.6734,0 6.6784,-3.0055 6.6784,-6.6784 l 0,-1.1143 7.2014,0 0,-31.3778 -7.2014,0 0,-0.5485 c 0,-3.6729 -3.005,-6.6784 -6.6784,-6.6784 l 0,0 c -3.6734,0 -6.6784,3.005 -6.6784,6.6784 l 0,0.5485 -7.2014,0 0,31.3778 z"
       style="fill:#3d1f00;fill-opacity:0.5;fill-rule:evenodd;stroke:#3d1f00;stroke-opacity:0.5;stroke-width:2.8346;stroke-linecap:butt;stroke-linejoin:miter;stroke-miterlimit:22.92558563;stroke-dasharray:none"
       id="path3213" /><path
       d="m 72.618,164.9659 7.2014,0 0,1.1143 c 0,3.6734 3.005,6.6784 6.6784,6.6784 l 0,0 c 3.6734,0 6.6784,-3.0056 6.6784,-6.6784 l 0,-1.1143 7.2014,0 0,-31.3778 -7.2014,0 0,-0.5485 c 0,-3.6729 -3.005,-6.6785 -6.6784,-6.6785 l 0,0 c -3.6734,0 -6.6784,3.005 -6.6784,6.6785 l 0,0.5485 -7.2014,0 0,31.3778 z"
       style="fill:#ffcc00;fill-opacity:1;fill-rule:evenodd;stroke:#000000;stroke-opacity:1;stroke-width:2.8346;stroke-linecap:butt;stroke-linejoin:miter;stroke-miterlimit:22.92558563;stroke-dasharray:none"
       id="path3215" /><path
       d="m 86.4978,157.8226 0,0 c 1.9284,0 3.5059,-1.5783 3.5059,-3.5059 l 0,-10.0794 c 0,-1.9276 -1.5775,-3.5059 -3.5059,-3.5059 l 0,0 c -1.9284,0 -3.5059,1.5775 -3.5059,3.5059 l 0,10.0794 c 0,1.9284 1.5775,3.5059 3.5059,3.5059"
       style="fill:#000000;fill-opacity:1;fill-rule:evenodd;stroke:none"
       id="path3217" /><path
       d="m 86.4978,157.8226 0,0 c 1.9284,0 3.5059,-1.5783 3.5059,-3.5059 l 0,-10.0794 c 0,-1.9276 -1.5775,-3.5059 -3.5059,-3.5059 l 0,0 c -1.9284,0 -3.5059,1.5775 -3.5059,3.5059 l 0,10.0794 c 0,1.9284 1.5775,3.5059 3.5059,3.5059"
       style="fill:#000000;fill-opacity:1;fill-rule:evenodd;stroke:none"
       id="path3219" /><path
       d="m 43.098,186.366 5.7543,0 0,-5.0638 -5.7543,0 0,5.0638 z"
       style="fill:#ffffcc;fill-opacity:1;fill-rule:evenodd;stroke:none"
       id="path3221" /><path
       d="m 39.8755,156.4438 29.6924,0 0,-5.0638 -29.6924,0 0,5.0638 z"
       style="fill:#ffffcc;fill-opacity:1;fill-rule:evenodd;stroke:none"
       id="path3223" /><path
       d="m 103.6335,156.4438 29.6924,0 0,-5.0638 -29.6924,0 0,5.0638 z"
       style="fill:#ffffcc;fill-opacity:1;fill-rule:evenodd;stroke:none"
       id="path3225" /><path
       d="m 125.9603,186.366 5.7543,0 0,-5.0638 -5.7543,0 0,5.0638 z"
       style="fill:#ffffcc;fill-opacity:1;fill-rule:evenodd;stroke:none"
       id="path3227" /><path
       d="m 86.4978,169.3332 c 1.7779,0 3.2199,-1.442 3.2199,-3.2198 0,-1.7782 -1.442,-3.2202 -3.2199,-3.2202 -1.7782,0 -3.2202,1.442 -3.2202,3.2202 0,1.7778 1.442,3.2198 3.2202,3.2198"
       style="fill:#ffffcc;fill-opacity:1;fill-rule:evenodd;stroke:none"
       id="path3229" /><path
       d="m 156.846,186.3522 c 17.9317,2.3017 33.6705,5.9842 51.4517,5.9845 17.3001,0 36.9247,-3.2225 52.3947,-5.9845 -2.2504,-13.0547 -4.5017,-26.1199 -6.7518,-39.1641 -2.251,-13.0478 -4.5125,-26.1093 -6.7632,-39.1555 -13.083,0 -26.1777,0 -39.2493,0 -13.0717,0 -26.1547,0 -39.2381,0 -1.9663,13.0462 -3.9387,26.1102 -5.9105,39.1555 -1.972,13.0468 -3.9557,26.1094 -5.9335,39.1641 z"
       style="fill:#996633;fill-opacity:1;fill-rule:evenodd;stroke:#000000;stroke-opacity:1;stroke-width:2.8346;stroke-linecap:butt;stroke-linejoin:miter;stroke-miterlimit:22.92558563;stroke-dasharray:none"
       id="path3231" /><path
       d="m 175.1579,122.235 c 11.1849,0 22.3696,0 33.5545,0 11.1736,0 22.3699,0 33.5546,0 -0.6137,-4.3319 -1.2391,-8.6556 -1.8754,-12.979 -10.6166,0 -21.2446,0 -31.8609,0 -10.6053,0 -21.2332,0 -31.8498,0 -0.5,4.3234 -1.0117,8.6471 -1.523,12.979"
       style="fill:#805224;fill-opacity:1;fill-rule:evenodd;stroke:none"
       id="path3233" /><path
       d="m 174.0212,131.9046 c 11.6053,0 23.2109,0 34.8162,0 11.6056,0 23.2109,0 34.8276,0 -0.2954,-2.0277 -0.591,-4.0556 -0.875,-6.0747 -11.344,0 -22.6993,0 -34.032,0 -11.3326,0 -22.6882,0 -34.0208,0 -0.2387,2.0191 -0.4774,4.047 -0.716,6.0747"
       style="fill:#805224;fill-opacity:1;fill-rule:evenodd;stroke:none"
       id="path3235" /><path
       d="m 169.9064,166.8875 c 13.1287,0 26.2687,0 39.3857,0 13.1287,0 26.2687,0 39.4084,0 -0.341,-2.3462 -0.6704,-4.684 -1.0114,-7.0217 -12.833,0 -25.6663,0 -38.488,0 -12.8217,0 -25.6547,0 -38.465,0 -0.284,2.3377 -0.557,4.6755 -0.8297,7.0217"
       style="fill:#805224;fill-opacity:1;fill-rule:evenodd;stroke:none"
       id="path3237" /><path
       d="m 156.4483,189.0921 11.5827,1.8414 5.6265,-43.7454 4.7171,-41.887 -9.2639,0 -6.3312,41.887 -6.3312,41.904 z"
       style="fill:#ffcc00;fill-opacity:1;fill-rule:evenodd;stroke:#000000;stroke-opacity:1;stroke-width:2.8346;stroke-linecap:butt;stroke-linejoin:miter;stroke-miterlimit:22.92558563;stroke-dasharray:none"
       id="path3239" /><path
       d="m 250.5875,190.4732 12.492,-1.3811 -7.4906,-41.904 -7.4681,-41.887 -9.2639,0 5.8654,41.887 5.8652,43.2851 z"
       style="fill:#ffcc00;fill-opacity:1;fill-rule:evenodd;stroke:#000000;stroke-opacity:1;stroke-width:2.8346;stroke-linecap:butt;stroke-linejoin:miter;stroke-miterlimit:22.92558563;stroke-dasharray:none"
       id="path3241" /><path
       d="m 162.8249,154.3606 c 15.5837,0 31.1791,0 46.7628,0 15.5838,0 31.1902,0 46.7853,0 -0.6817,-3.8375 -1.3524,-7.6668 -2.0344,-11.4962 -14.9701,0 -29.9515,0 -44.9215,0 -14.9584,0 -29.9398,0 -44.8985,0 -0.557,3.8294 -1.1367,7.6587 -1.6937,11.4962 z"
       style="fill:#3d1f00;fill-opacity:0.5;fill-rule:evenodd;stroke:#3d1f00;stroke-opacity:0.5;stroke-width:2.8346;stroke-linecap:butt;stroke-linejoin:miter;stroke-miterlimit:22.92558563;stroke-dasharray:none"
       id="path3243" /><path
       d="m 157.0507,158.9692 c 17.1411,0 34.2819,0 51.423,0 17.1411,0 34.2936,0 51.4457,0 -0.716,-3.8378 -1.4207,-7.6754 -2.1367,-11.5047 -16.4818,0 -32.9522,0 -49.4226,0 -16.4705,0 -32.9522,0 -49.4113,0 -0.6364,3.8293 -1.2617,7.6669 -1.8981,11.5047 z"
       style="fill:#ffcc00;fill-opacity:1;fill-rule:evenodd;stroke:#000000;stroke-opacity:1;stroke-width:2.8346;stroke-linecap:butt;stroke-linejoin:miter;stroke-miterlimit:22.92558563;stroke-dasharray:none"
       id="path3245" /><path
       d="m 164.0186,124.4976 c 12.3669,-0.9133 18.5391,-8.882 19.2665,-19.1965 -5.3992,0 -10.7983,0 -16.1978,0 -1.0227,6.393 -2.0457,12.7948 -3.0687,19.1965 z"
       style="fill:#ffcc00;fill-opacity:1;fill-rule:evenodd;stroke:#000000;stroke-opacity:1;stroke-width:2.8346;stroke-linecap:round;stroke-linejoin:round;stroke-miterlimit:22.92558563;stroke-dasharray:none"
       id="path3247" /><path
       d="m 253.6906,124.4976 c -12.3897,-0.9133 -18.7892,-8.882 -19.7782,-19.1965 5.3992,0 10.7986,0 16.1977,0 1.1934,6.393 2.3871,12.7948 3.5805,19.1965 z"
       style="fill:#ffcc00;fill-opacity:1;fill-rule:evenodd;stroke:#000000;stroke-opacity:1;stroke-width:2.8346;stroke-linecap:round;stroke-linejoin:round;stroke-miterlimit:22.92558563;stroke-dasharray:none"
       id="path3249" /><path
       d="m 172.3731,116.3446 c 1.3354,0 2.569,-1.2277 2.7507,-2.7399 0.1817,-1.5123 -0.7163,-2.7315 -2.0233,-2.7315 -1.3071,0 -2.5461,1.2192 -2.7621,2.7315 -0.216,1.5122 0.6993,2.7399 2.0347,2.7399"
       style="fill:#000000;fill-opacity:1;fill-rule:evenodd;stroke:none"
       id="path3251" /><path
       d="m 245.0974,116.3446 c 1.3356,0 2.2107,-1.2277 1.955,-2.7399 -0.2557,-1.5123 -1.512,-2.7315 -2.819,-2.7315 -1.3071,0 -2.1938,1.2192 -1.9664,2.7315 0.2273,1.5122 1.4947,2.7399 2.8304,2.7399"
       style="fill:#000000;fill-opacity:1;fill-rule:evenodd;stroke:none"
       id="path3253" /><path
       d="m 172.1344,186.2237 c 11.7842,1.6283 26.2035,4.3952 37.385,3.6828 16.0518,-1.0224 26.3084,-2.3017 37.3967,-3.6828 -0.2844,-2.1534 -0.5684,-4.2984 -0.8411,-6.4434 -11.7589,1.8414 -25.3479,3.2224 -37.5559,3.2224 -12.2077,0 -23.0346,-1.381 -35.7027,-3.2224 -0.2273,2.145 -0.4433,4.29 -0.682,6.4434"
       style="fill:#c28545;fill-opacity:1;fill-rule:evenodd;stroke:none"
       id="path3255" /><path
       d="m 194.0947,160.3602 c 2.4894,0 4.9788,0 7.4682,0 0,0.3685 -0.007,0.7375 -0.0114,1.1143 -0.0414,3.67 3.1145,6.6781 7.0246,6.6781 0,0 0,0 0,0 3.9101,0 7.0219,-3.0087 6.8882,-6.6781 -0.0137,-0.3773 -0.0341,-0.7458 -0.0454,-1.1143 2.4891,0 4.9785,0 7.4679,0 -0.307,-5.2371 -0.6254,-10.4658 -0.9321,-15.6941 -0.3067,-5.2287 -0.6139,-10.4572 -0.932,-15.6858 -2.228,0 -4.4558,0 -6.6725,0 0,-0.1842 -0.0167,-0.3687 -0.0226,-0.5445 -0.1302,-3.6782 -2.9325,-6.6781 -6.2402,-6.6781 0,0 0,0 0,0 -3.3191,0 -6.0614,2.9996 -6.1155,6.6781 -0.002,0.1755 0,0.3603 0,0.5445 -2.2391,0 -4.4558,0 -6.6722,0 -0.1933,5.2286 -0.398,10.4573 -0.6023,15.6858 -0.2044,5.2285 -0.398,10.457 -0.6027,15.6941 z"
       style="fill:#3d1f00;fill-opacity:0.5;fill-rule:evenodd;stroke:#3d1f00;stroke-opacity:0.5;stroke-width:2.8346;stroke-linecap:butt;stroke-linejoin:miter;stroke-miterlimit:22.92558563;stroke-dasharray:none"
       id="path3257" /><path
       d="m 193.9243,164.9602 c 2.5234,0 5.0468,0 7.5816,0 0,0.3685 -0.007,0.7376 -0.0113,1.1143 -0.0412,3.6785 3.16,6.6782 7.1382,6.6782 0,0 0,0 0,0 3.967,0 7.1246,-3.0087 6.9905,-6.6782 -0.0136,-0.3773 -0.0227,-0.7458 -0.0454,-1.1143 2.5234,0 5.0582,0 7.5929,0 -0.318,-5.237 -0.6307,-10.4652 -0.9434,-15.694 -0.3123,-5.2279 -0.625,-10.4573 -0.932,-15.6858 -2.2734,0 -4.5238,0 -6.7859,0 -0.0113,-0.1842 -0.0164,-0.3685 -0.0226,-0.5445 -0.1301,-3.6698 -2.9781,-6.6782 -6.3542,-6.6782 0,0 0,0 0,0 -3.3758,0 -6.1744,3.0082 -6.2175,6.6782 -0.002,0.1757 -0.0113,0.3603 0,0.5445 -2.2734,0 -4.5354,0 -6.7975,0 -0.193,5.2285 -0.3923,10.4576 -0.591,15.6858 -0.199,5.2285 -0.3977,10.457 -0.6024,15.694 z"
       style="fill:#ffcc00;fill-opacity:1;fill-rule:evenodd;stroke:#000000;stroke-opacity:1;stroke-width:2.8346;stroke-linecap:butt;stroke-linejoin:miter;stroke-miterlimit:22.92558563;stroke-dasharray:none"
       id="path3259" /><path
       d="m 208.4737,157.8212 c 0,0 0,0 0,0 1.9778,0 3.5578,-1.5835 3.5124,-3.5107 -0.0793,-3.3599 -0.1479,-6.7204 -0.2273,-10.0803 -0.0454,-1.927 -1.6027,-3.5025 -3.4784,-3.5025 0,0 0,0 0,0 -1.8641,0 -3.3945,1.5755 -3.3984,3.5025 -0.007,3.3599 -0.004,6.7201 -0.0114,10.0803 -0.004,1.9267 1.6254,3.5107 3.6031,3.5107"
       style="fill:#000000;fill-opacity:1;fill-rule:evenodd;stroke:none"
       id="path3261" /><path
       d="m 208.4737,157.8212 c 0,0 0,0 0,0 1.9778,0 3.5578,-1.5835 3.5124,-3.5107 -0.0793,-3.3599 -0.1479,-6.7204 -0.2273,-10.0803 -0.0454,-1.927 -1.6027,-3.5025 -3.4784,-3.5025 0,0 0,0 0,0 -1.8641,0 -3.3945,1.5755 -3.3984,3.5025 -0.007,3.3599 -0.004,6.7201 -0.0114,10.0803 -0.004,1.9267 1.6254,3.5107 3.6031,3.5107"
       style="fill:#000000;fill-opacity:1;fill-rule:evenodd;stroke:none"
       id="path3263" /><path
       d="m 159.3298,186.7912 c 2.1597,0.2889 4.3307,0.5792 6.4902,0.868 0.216,-1.6636 0.4093,-3.3219 0.614,-4.9788 -2.1257,-0.2843 -4.2625,-0.57 -6.3882,-0.8543 -0.2387,1.6523 -0.466,3.306 -0.716,4.9651"
       style="fill:#ffffcc;fill-opacity:1;fill-rule:evenodd;stroke:none"
       id="path3265" /><path
       d="m 160.7448,156.4387 c 5.0582,0 10.1279,0 15.1861,0 5.0581,0 10.1389,0 15.2087,0 0.0794,-1.6926 0.159,-3.3769 0.2387,-5.061 -4.9788,0 -9.9686,0 -14.9361,0 -4.9671,0 -9.9572,0 -14.9244,0 -0.25,1.6841 -0.523,3.3684 -0.773,5.061"
       style="fill:#ffffcc;fill-opacity:1;fill-rule:evenodd;stroke:none"
       id="path3267" /><path
       d="m 225.9899,156.4387 c 5.0581,0 10.1279,0 15.186,0 5.0581,0 10.139,0 15.2087,0 -0.307,-1.6926 -0.6026,-3.3769 -0.8866,-5.061 -4.9788,0 -9.9686,0 -14.9474,0 -4.9672,0 -9.9459,0 -14.9131,0 0.1137,1.6841 0.2274,3.3684 0.3524,5.061"
       style="fill:#ffffcc;fill-opacity:1;fill-rule:evenodd;stroke:none"
       id="path3269" /><path
       d="m 253.3156,187.602 c 2.171,-0.398 4.3307,-0.7935 6.5018,-1.1914 -0.2957,-1.6385 -0.5797,-3.2704 -0.8754,-4.9006 -2.1257,0.3895 -4.2624,0.781 -6.3881,1.1704 0.25,1.6385 0.5116,3.2746 0.7617,4.9216"
       style="fill:#ffffcc;fill-opacity:1;fill-rule:evenodd;stroke:none"
       id="path3271" /><path
       d="m 208.5987,169.3256 c 1.9041,0 3.4158,-1.4412 3.3761,-3.2173 -0.0397,-1.7762 -1.5973,-3.2177 -3.4557,-3.2177 -1.8584,0 -3.3531,1.4415 -3.3531,3.2177 0,1.7761 1.5287,3.2173 3.4327,3.2173"
       style="fill:#ffffcc;fill-opacity:1;fill-rule:evenodd;stroke:none"
       id="path3273" /><path
       d="m 156.846,186.3522 c 17.9317,2.3017 33.6705,5.9842 51.4517,5.9845 17.3001,0 36.9247,-3.2225 52.3947,-5.9845 -2.2504,-13.0547 -4.5017,-26.1199 -6.7518,-39.1641 -2.251,-13.0478 -4.5125,-26.1093 -6.7632,-39.1555 -13.083,0 -26.1777,0 -39.2493,0 -13.0717,0 -26.1547,0 -39.2381,0 -1.9663,13.0462 -3.9387,26.1102 -5.9105,39.1555 -1.972,13.0468 -3.9557,26.1094 -5.9335,39.1641 z"
       style="fill:#996633;fill-opacity:1;fill-rule:evenodd;stroke:#000000;stroke-opacity:1;stroke-width:2.8346;stroke-linecap:butt;stroke-linejoin:miter;stroke-miterlimit:22.92558563;stroke-dasharray:none"
       id="path3275" /><path
       d="m 175.1579,122.235 c 11.1849,0 22.3696,0 33.5545,0 11.1736,0 22.3699,0 33.5546,0 -0.6137,-4.3319 -1.2391,-8.6556 -1.8754,-12.979 -10.6166,0 -21.2446,0 -31.8609,0 -10.6053,0 -21.2332,0 -31.8498,0 -0.5,4.3234 -1.0117,8.6471 -1.523,12.979"
       style="fill:#805224;fill-opacity:1;fill-rule:evenodd;stroke:none"
       id="path3277" /><path
       d="m 174.0212,131.9046 c 11.6053,0 23.2109,0 34.8162,0 11.6056,0 23.2109,0 34.8276,0 -0.2954,-2.0277 -0.591,-4.0556 -0.875,-6.0747 -11.344,0 -22.6993,0 -34.032,0 -11.3326,0 -22.6882,0 -34.0208,0 -0.2387,2.0191 -0.4774,4.047 -0.716,6.0747"
       style="fill:#805224;fill-opacity:1;fill-rule:evenodd;stroke:none"
       id="path3279" /><path
       d="m 169.9064,166.8875 c 13.1287,0 26.2687,0 39.3857,0 13.1287,0 26.2687,0 39.4084,0 -0.341,-2.3462 -0.6704,-4.684 -1.0114,-7.0217 -12.833,0 -25.6663,0 -38.488,0 -12.8217,0 -25.6547,0 -38.465,0 -0.284,2.3377 -0.557,4.6755 -0.8297,7.0217"
       style="fill:#805224;fill-opacity:1;fill-rule:evenodd;stroke:none"
       id="path3281" /><path
       d="m 156.4483,189.0921 11.5827,1.8414 5.6265,-43.7454 4.7171,-41.887 -9.2639,0 -6.3312,41.887 -6.3312,41.904 z"
       style="fill:#ffcc00;fill-opacity:1;fill-rule:evenodd;stroke:#000000;stroke-opacity:1;stroke-width:2.8346;stroke-linecap:butt;stroke-linejoin:miter;stroke-miterlimit:22.92558563;stroke-dasharray:none"
       id="path3283" /><path
       d="m 250.5875,190.4732 12.492,-1.3811 -7.4906,-41.904 -7.4681,-41.887 -9.2639,0 5.8654,41.887 5.8652,43.2851 z"
       style="fill:#ffcc00;fill-opacity:1;fill-rule:evenodd;stroke:#000000;stroke-opacity:1;stroke-width:2.8346;stroke-linecap:butt;stroke-linejoin:miter;stroke-miterlimit:22.92558563;stroke-dasharray:none"
       id="path3285" /><path
       d="m 162.8249,154.3606 c 15.5837,0 31.1791,0 46.7628,0 15.5838,0 31.1902,0 46.7853,0 -0.6817,-3.8375 -1.3524,-7.6668 -2.0344,-11.4962 -14.9701,0 -29.9515,0 -44.9215,0 -14.9584,0 -29.9398,0 -44.8985,0 -0.557,3.8294 -1.1367,7.6587 -1.6937,11.4962 z"
       style="fill:#3d1f00;fill-opacity:0.5;fill-rule:evenodd;stroke:#3d1f00;stroke-opacity:0.5;stroke-width:2.8346;stroke-linecap:butt;stroke-linejoin:miter;stroke-miterlimit:22.92558563;stroke-dasharray:none"
       id="path3287" /><path
       d="m 157.0507,158.9692 c 17.1411,0 34.2819,0 51.423,0 17.1411,0 34.2936,0 51.4457,0 -0.716,-3.8378 -1.4207,-7.6754 -2.1367,-11.5047 -16.4818,0 -32.9522,0 -49.4226,0 -16.4705,0 -32.9522,0 -49.4113,0 -0.6364,3.8293 -1.2617,7.6669 -1.8981,11.5047 z"
       style="fill:#ffcc00;fill-opacity:1;fill-rule:evenodd;stroke:#000000;stroke-opacity:1;stroke-width:2.8346;stroke-linecap:butt;stroke-linejoin:miter;stroke-miterlimit:22.92558563;stroke-dasharray:none"
       id="path3289" /><path
       d="m 164.0186,124.4976 c 12.3669,-0.9133 18.5391,-8.882 19.2665,-19.1965 -5.3992,0 -10.7983,0 -16.1978,0 -1.0227,6.393 -2.0457,12.7948 -3.0687,19.1965 z"
       style="fill:#ffcc00;fill-opacity:1;fill-rule:evenodd;stroke:#000000;stroke-opacity:1;stroke-width:2.8346;stroke-linecap:round;stroke-linejoin:round;stroke-miterlimit:22.92558563;stroke-dasharray:none"
       id="path3291" /><path
       d="m 253.6906,124.4976 c -12.3897,-0.9133 -18.7892,-8.882 -19.7782,-19.1965 5.3992,0 10.7986,0 16.1977,0 1.1934,6.393 2.3871,12.7948 3.5805,19.1965 z"
       style="fill:#ffcc00;fill-opacity:1;fill-rule:evenodd;stroke:#000000;stroke-opacity:1;stroke-width:2.8346;stroke-linecap:round;stroke-linejoin:round;stroke-miterlimit:22.92558563;stroke-dasharray:none"
       id="path3293" /><path
       d="m 172.3731,116.3446 c 1.3354,0 2.569,-1.2277 2.7507,-2.7399 0.1817,-1.5123 -0.7163,-2.7315 -2.0233,-2.7315 -1.3071,0 -2.5461,1.2192 -2.7621,2.7315 -0.216,1.5122 0.6993,2.7399 2.0347,2.7399"
       style="fill:#000000;fill-opacity:1;fill-rule:evenodd;stroke:none"
       id="path3295" /><path
       d="m 245.0974,116.3446 c 1.3356,0 2.2107,-1.2277 1.955,-2.7399 -0.2557,-1.5123 -1.512,-2.7315 -2.819,-2.7315 -1.3071,0 -2.1938,1.2192 -1.9664,2.7315 0.2273,1.5122 1.4947,2.7399 2.8304,2.7399"
       style="fill:#000000;fill-opacity:1;fill-rule:evenodd;stroke:none"
       id="path3297" /><path
       d="m 172.1344,186.2237 c 11.7842,1.6283 26.2035,4.3952 37.385,3.6828 16.0518,-1.0224 26.3084,-2.3017 37.3967,-3.6828 -0.2844,-2.1534 -0.5684,-4.2984 -0.8411,-6.4434 -11.7589,1.8414 -25.3479,3.2224 -37.5559,3.2224 -12.2077,0 -23.0346,-1.381 -35.7027,-3.2224 -0.2273,2.145 -0.4433,4.29 -0.682,6.4434"
       style="fill:#c28545;fill-opacity:1;fill-rule:evenodd;stroke:none"
       id="path3299" /><path
       d="m 194.0947,160.3602 c 2.4894,0 4.9788,0 7.4682,0 0,0.3685 -0.007,0.7375 -0.0114,1.1143 -0.0414,3.67 3.1145,6.6781 7.0246,6.6781 0,0 0,0 0,0 3.9101,0 7.0219,-3.0087 6.8882,-6.6781 -0.0137,-0.3773 -0.0341,-0.7458 -0.0454,-1.1143 2.4891,0 4.9785,0 7.4679,0 -0.307,-5.2371 -0.6254,-10.4658 -0.9321,-15.6941 -0.3067,-5.2287 -0.6139,-10.4572 -0.932,-15.6858 -2.228,0 -4.4558,0 -6.6725,0 0,-0.1842 -0.0167,-0.3687 -0.0226,-0.5445 -0.1302,-3.6782 -2.9325,-6.6781 -6.2402,-6.6781 0,0 0,0 0,0 -3.3191,0 -6.0614,2.9996 -6.1155,6.6781 -0.002,0.1755 0,0.3603 0,0.5445 -2.2391,0 -4.4558,0 -6.6722,0 -0.1933,5.2286 -0.398,10.4573 -0.6023,15.6858 -0.2044,5.2285 -0.398,10.457 -0.6027,15.6941 z"
       style="fill:#3d1f00;fill-opacity:0.5;fill-rule:evenodd;stroke:#3d1f00;stroke-opacity:0.5;stroke-width:2.8346;stroke-linecap:butt;stroke-linejoin:miter;stroke-miterlimit:22.92558563;stroke-dasharray:none"
       id="path3301" /><path
       d="m 193.9243,164.9602 c 2.5234,0 5.0468,0 7.5816,0 0,0.3685 -0.007,0.7376 -0.0113,1.1143 -0.0412,3.6785 3.16,6.6782 7.1382,6.6782 0,0 0,0 0,0 3.967,0 7.1246,-3.0087 6.9905,-6.6782 -0.0136,-0.3773 -0.0227,-0.7458 -0.0454,-1.1143 2.5234,0 5.0582,0 7.5929,0 -0.318,-5.237 -0.6307,-10.4652 -0.9434,-15.694 -0.3123,-5.2279 -0.625,-10.4573 -0.932,-15.6858 -2.2734,0 -4.5238,0 -6.7859,0 -0.0113,-0.1842 -0.0164,-0.3685 -0.0226,-0.5445 -0.1301,-3.6698 -2.9781,-6.6782 -6.3542,-6.6782 0,0 0,0 0,0 -3.3758,0 -6.1744,3.0082 -6.2175,6.6782 -0.002,0.1757 -0.0113,0.3603 0,0.5445 -2.2734,0 -4.5354,0 -6.7975,0 -0.193,5.2285 -0.3923,10.4576 -0.591,15.6858 -0.199,5.2285 -0.3977,10.457 -0.6024,15.694 z"
       style="fill:#ffcc00;fill-opacity:1;fill-rule:evenodd;stroke:#000000;stroke-opacity:1;stroke-width:2.8346;stroke-linecap:butt;stroke-linejoin:miter;stroke-miterlimit:22.92558563;stroke-dasharray:none"
       id="path3303" /><path
       d="m 208.4737,157.8212 c 0,0 0,0 0,0 1.9778,0 3.5578,-1.5835 3.5124,-3.5107 -0.0793,-3.3599 -0.1479,-6.7204 -0.2273,-10.0803 -0.0454,-1.927 -1.6027,-3.5025 -3.4784,-3.5025 0,0 0,0 0,0 -1.8641,0 -3.3945,1.5755 -3.3984,3.5025 -0.007,3.3599 -0.004,6.7201 -0.0114,10.0803 -0.004,1.9267 1.6254,3.5107 3.6031,3.5107"
       style="fill:#000000;fill-opacity:1;fill-rule:evenodd;stroke:none"
       id="path3305" /><path
       d="m 208.4737,157.8212 c 0,0 0,0 0,0 1.9778,0 3.5578,-1.5835 3.5124,-3.5107 -0.0793,-3.3599 -0.1479,-6.7204 -0.2273,-10.0803 -0.0454,-1.927 -1.6027,-3.5025 -3.4784,-3.5025 0,0 0,0 0,0 -1.8641,0 -3.3945,1.5755 -3.3984,3.5025 -0.007,3.3599 -0.004,6.7201 -0.0114,10.0803 -0.004,1.9267 1.6254,3.5107 3.6031,3.5107"
       style="fill:#000000;fill-opacity:1;fill-rule:evenodd;stroke:none"
       id="path3307" /><path
       d="m 159.3298,186.7912 c 2.1597,0.2889 4.3307,0.5792 6.4902,0.868 0.216,-1.6636 0.4093,-3.3219 0.614,-4.9788 -2.1257,-0.2843 -4.2625,-0.57 -6.3882,-0.8543 -0.2387,1.6523 -0.466,3.306 -0.716,4.9651"
       style="fill:#ffffcc;fill-opacity:1;fill-rule:evenodd;stroke:none"
       id="path3309" /><path
       d="m 160.7448,156.4387 c 5.0582,0 10.1279,0 15.1861,0 5.0581,0 10.1389,0 15.2087,0 0.0794,-1.6926 0.159,-3.3769 0.2387,-5.061 -4.9788,0 -9.9686,0 -14.9361,0 -4.9671,0 -9.9572,0 -14.9244,0 -0.25,1.6841 -0.523,3.3684 -0.773,5.061"
       style="fill:#ffffcc;fill-opacity:1;fill-rule:evenodd;stroke:none"
       id="path3311" /><path
       d="m 225.9899,156.4387 c 5.0581,0 10.1279,0 15.186,0 5.0581,0 10.139,0 15.2087,0 -0.307,-1.6926 -0.6026,-3.3769 -0.8866,-5.061 -4.9788,0 -9.9686,0 -14.9474,0 -4.9672,0 -9.9459,0 -14.9131,0 0.1137,1.6841 0.2274,3.3684 0.3524,5.061"
       style="fill:#ffffcc;fill-opacity:1;fill-rule:evenodd;stroke:none"
       id="path3313" /><path
       d="m 253.3156,187.602 c 2.171,-0.398 4.3307,-0.7935 6.5018,-1.1914 -0.2957,-1.6385 -0.5797,-3.2704 -0.8754,-4.9006 -2.1257,0.3895 -4.2624,0.781 -6.3881,1.1704 0.25,1.6385 0.5116,3.2746 0.7617,4.9216"
       style="fill:#ffffcc;fill-opacity:1;fill-rule:evenodd;stroke:none"
       id="path3315" /><path
       d="m 208.5987,169.3256 c 1.9041,0 3.4158,-1.4412 3.3761,-3.2173 -0.0397,-1.7762 -1.5973,-3.2177 -3.4557,-3.2177 -1.8584,0 -3.3531,1.4415 -3.3531,3.2177 0,1.7761 1.5287,3.2173 3.4327,3.2173"
       style="fill:#ffffcc;fill-opacity:1;fill-rule:evenodd;stroke:none"
       id="path3317" /><path
       d="m 292.7755,120.9974 c 5.463,0.036 9.9057,-1.8672 9.9216,-4.25 0.0156,-2.3825 -4.402,-4.3441 -9.8649,-4.3801 -5.4626,-0.036 -9.9056,1.8669 -9.9212,4.2497 -0.0159,2.3828 4.4016,4.3444 9.8645,4.3804 z"
       style="fill:#ffcc00;fill-opacity:1;fill-rule:evenodd;stroke:#000000;stroke-opacity:1;stroke-width:2.8346;stroke-linecap:round;stroke-linejoin:round;stroke-miterlimit:22.92558563;stroke-dasharray:none"
       id="path3319" /><path
       d="m 292.7755,124.9716 c 5.463,0.036 9.9057,-1.8672 9.9216,-4.25 0.0156,-2.3825 -4.402,-4.3441 -9.8649,-4.3801 -5.4626,-0.036 -9.9056,1.8669 -9.9212,4.2497 -0.0159,2.3828 4.4016,4.3444 9.8645,4.3804 z"
       style="fill:#ffff66;fill-opacity:1;fill-rule:evenodd;stroke:#000000;stroke-opacity:1;stroke-width:2.8346;stroke-linecap:round;stroke-linejoin:round;stroke-miterlimit:22.92558563;stroke-dasharray:none"
       id="path3321" /><path
       d="m 290.7043,122.9933 c 2.9179,0.1789 5.3282,-0.3963 5.3827,-1.2844 0.0544,-0.8881 -2.2675,-1.7532 -5.1855,-1.9321 -2.9179,-0.1788 -5.3282,0.3963 -5.3827,1.2844 -0.0544,0.8881 2.2678,1.7532 5.1855,1.9321"
       style="fill:#ffffff;fill-opacity:1;fill-rule:evenodd;stroke:none"
       id="path3323" /><path
       d="m 284.3178,205.3052 95.5655,0 0,-45.114 -95.5655,0 0,45.114 z"
       style="fill:#b58200;fill-opacity:1;fill-rule:evenodd;stroke:#000000;stroke-opacity:1;stroke-width:2.8346;stroke-linecap:round;stroke-linejoin:round;stroke-miterlimit:22.92558563;stroke-dasharray:none"
       id="path3325" /><path
       d="m 292.8886,196.6558 78.4239,0 0,-37.0222 -78.4239,0 0,37.0222 z"
       style="fill:#663300;fill-opacity:1;fill-rule:evenodd;stroke:#000000;stroke-opacity:1;stroke-width:2.8346;stroke-linecap:round;stroke-linejoin:round;stroke-miterlimit:22.92558563;stroke-dasharray:none"
       id="path3327" /><path
       d="m 293.6171,196.3284 5.9729,0 65.2748,0 5.1197,0 0.8532,0 0,-26.7001 -5.9729,0 0,20.2553 -65.2748,0 0,-20.2553 -5.9729,0 0,20.2553 0,6.4448 z"
       style="fill:#000000;fill-opacity:0.25;fill-rule:evenodd;stroke:none"
       id="path3329" /><path
       d="m 332.1006,180.9476 c 23.3634,0 42.3107,-8.2641 42.3107,-18.4547 0,-10.1905 -18.9473,-18.4546 -42.3107,-18.4546 -23.3635,0 -42.3108,8.2641 -42.3108,18.4546 0,10.1906 18.9473,18.4547 42.3108,18.4547 z"
       style="fill:#ffcc00;fill-opacity:1;fill-rule:evenodd;stroke:#000000;stroke-opacity:1;stroke-width:2.8346;stroke-linecap:round;stroke-linejoin:round;stroke-miterlimit:22.92558563;stroke-dasharray:none"
       id="path3331" /><path
       d="m 296.3064,170.2772 c 4.9699,2.2674 9.8027,2.3482 10.7917,0.1802 0.989,-2.1679 -2.2396,-5.7648 -7.2099,-8.0319 -4.97,-2.2675 -9.8028,-2.3482 -10.7918,-0.1806 -0.989,2.168 2.2397,5.7648 7.21,8.0323 z"
       style="fill:#ffcc00;fill-opacity:1;fill-rule:evenodd;stroke:#000000;stroke-opacity:1;stroke-width:2.8346;stroke-linecap:round;stroke-linejoin:round;stroke-miterlimit:22.92558563;stroke-dasharray:none"
       id="path3333" /><path
       d="m 294.3896,173.8369 c 4.97,2.2674 9.8027,2.3482 10.7918,0.1803 0.989,-2.1679 -2.2397,-5.7648 -7.21,-8.032 -4.97,-2.2674 -9.8027,-2.3482 -10.7917,-0.1805 -0.9891,2.1679 2.2396,5.7648 7.2099,8.0322 z"
       style="fill:#ffff66;fill-opacity:1;fill-rule:evenodd;stroke:#000000;stroke-opacity:1;stroke-width:2.8346;stroke-linecap:round;stroke-linejoin:round;stroke-miterlimit:22.92558563;stroke-dasharray:none"
       id="path3335" /><path
       d="m 314.1765,180.6508 c 5.4375,0.529 10.0338,-0.9652 10.2646,-3.3369 0.231,-2.3715 -3.9915,-4.7239 -9.4289,-5.2529 -5.4371,-0.5289 -10.0338,0.9652 -10.2645,3.3367 -0.2308,2.3717 3.9914,4.7239 9.4288,5.2531 z"
       style="fill:#ffff66;fill-opacity:1;fill-rule:evenodd;stroke:#000000;stroke-opacity:1;stroke-width:2.8346;stroke-linecap:round;stroke-linejoin:round;stroke-miterlimit:22.92558563;stroke-dasharray:none"
       id="path3337" /><path
       d="m 314.1765,185.0315 c 5.4375,0.5289 10.0338,-0.9652 10.2646,-3.3369 0.231,-2.3715 -3.9915,-4.724 -9.4289,-5.2529 -5.4371,-0.529 -10.0338,0.9652 -10.2645,3.3366 -0.2308,2.3718 3.9914,4.724 9.4288,5.2532 z"
       style="fill:#ffff66;fill-opacity:1;fill-rule:evenodd;stroke:#000000;stroke-opacity:1;stroke-width:2.8346;stroke-linecap:round;stroke-linejoin:round;stroke-miterlimit:22.92558563;stroke-dasharray:none"
       id="path3339" /><path
       d="m 314.1765,169.6025 c 5.4375,0.529 10.0338,-0.9652 10.2646,-3.3369 0.231,-2.3715 -3.9915,-4.724 -9.4289,-5.2529 -5.4371,-0.529 -10.0338,0.9652 -10.2645,3.3367 -0.2308,2.3717 3.9914,4.7239 9.4288,5.2531 z"
       style="fill:#ffcc00;fill-opacity:1;fill-rule:evenodd;stroke:#000000;stroke-opacity:1;stroke-width:2.8346;stroke-linecap:round;stroke-linejoin:round;stroke-miterlimit:22.92558563;stroke-dasharray:none"
       id="path3341" /><path
       d="m 357.9469,177.7912 c 5.3141,-1.2668 9.1757,-4.1737 8.623,-6.4916 -0.5525,-2.3179 -5.3102,-3.1702 -10.6243,-1.9034 -5.3141,1.2668 -9.1755,4.174 -8.623,6.4916 0.5525,2.3179 5.3102,3.1702 10.6243,1.9034 z"
       style="fill:#ffff66;fill-opacity:1;fill-rule:evenodd;stroke:#000000;stroke-opacity:1;stroke-width:2.8346;stroke-linecap:round;stroke-linejoin:round;stroke-miterlimit:22.92558563;stroke-dasharray:none"
       id="path3343" /><path
       d="m 340.8537,181.5925 c 5.4292,-0.6075 9.6171,-3.0206 9.3523,-5.3884 -0.265,-2.368 -4.8827,-3.7958 -10.3119,-3.1884 -5.4292,0.6075 -9.6171,3.0203 -9.352,5.3884 0.2647,2.3681 4.8827,3.7959 10.3116,3.1884 z"
       style="fill:#ffcc00;fill-opacity:1;fill-rule:evenodd;stroke:#000000;stroke-opacity:1;stroke-width:2.8346;stroke-linecap:round;stroke-linejoin:round;stroke-miterlimit:22.92558563;stroke-dasharray:none"
       id="path3345" /><path
       d="m 340.8537,185.5426 c 5.4292,-0.6075 9.6171,-3.0206 9.3523,-5.3884 -0.265,-2.3681 -4.8827,-3.7959 -10.3119,-3.1884 -5.4292,0.6075 -9.6171,3.0203 -9.352,5.3884 0.2647,2.368 4.8827,3.7958 10.3116,3.1884 z"
       style="fill:#ffcc00;fill-opacity:1;fill-rule:evenodd;stroke:#000000;stroke-opacity:1;stroke-width:2.8346;stroke-linecap:round;stroke-linejoin:round;stroke-miterlimit:22.92558563;stroke-dasharray:none"
       id="path3347" /><path
       d="m 326.5152,187.1155 c 5.4626,0.0613 9.9142,-1.8215 9.9408,-4.2043 0.0266,-2.3825 -4.3818,-4.3642 -9.8444,-4.4255 -5.4627,-0.0609 -9.9142,1.8219 -9.9409,4.2044 -0.0266,2.3828 4.3818,4.3645 9.8445,4.4254 z"
       style="fill:#ffff66;fill-opacity:1;fill-rule:evenodd;stroke:#000000;stroke-opacity:1;stroke-width:2.8346;stroke-linecap:round;stroke-linejoin:round;stroke-miterlimit:22.92558563;stroke-dasharray:none"
       id="path3349" /><path
       d="m 326.5152,190.7617 c 5.4626,0.0613 9.9142,-1.8215 9.9408,-4.2043 0.0266,-2.3825 -4.3818,-4.3642 -9.8444,-4.4255 -5.4627,-0.0609 -9.9142,1.8219 -9.9409,4.2044 -0.0266,2.3828 4.3818,4.3645 9.8445,4.4254 z"
       style="fill:#ffff66;fill-opacity:1;fill-rule:evenodd;stroke:#000000;stroke-opacity:1;stroke-width:2.8346;stroke-linecap:round;stroke-linejoin:round;stroke-miterlimit:22.92558563;stroke-dasharray:none"
       id="path3351" /><path
       d="m 348.0846,171.4255 c 5.4141,0.7285 10.0627,-0.5956 10.3804,-2.9571 0.3178,-2.3616 -3.8154,-4.8674 -9.2296,-5.5962 -5.4141,-0.7285 -10.0624,0.5959 -10.3804,2.9574 -0.3178,2.3615 3.8154,4.8674 9.2296,5.5959 z"
       style="fill:#ffff66;fill-opacity:1;fill-rule:evenodd;stroke:#000000;stroke-opacity:1;stroke-width:2.8346;stroke-linecap:round;stroke-linejoin:round;stroke-miterlimit:22.92558563;stroke-dasharray:none"
       id="path3353" /><path
       d="m 366.4959,170.4903 c 5.2237,-1.5996 8.894,-4.7443 8.1964,-7.0228 -0.6977,-2.2782 -5.4995,-2.8287 -10.7232,-1.2294 -5.2237,1.5996 -8.894,4.7446 -8.1964,7.0228 0.6979,2.2785 5.4998,2.829 10.7232,1.2294 z"
       style="fill:#ffff66;fill-opacity:1;fill-rule:evenodd;stroke:#000000;stroke-opacity:1;stroke-width:2.8346;stroke-linecap:round;stroke-linejoin:round;stroke-miterlimit:22.92558563;stroke-dasharray:none"
       id="path3355" /><path
       d="m 377.5561,148.911 -6.7632,-39.1555 -39.2493,0 -39.2381,0 -5.9105,39.1555 91.1611,0 z"
       style="fill:#996633;fill-opacity:1;fill-rule:evenodd;stroke:#000000;stroke-opacity:1;stroke-width:2.8346;stroke-linecap:butt;stroke-linejoin:miter;stroke-miterlimit:22.92558563;stroke-dasharray:none"
       id="path3357" /><path
       d="m 298.7734,123.9579 c 11.1849,0 22.3696,0 33.5545,0 11.1736,0 22.3699,0 33.5546,0 -0.6137,-4.3319 -1.2391,-8.6556 -1.8754,-12.979 -10.6166,0 -21.2446,0 -31.8609,0 -10.6053,0 -21.2332,0 -31.8498,0 -0.5,4.3234 -1.0117,8.6471 -1.523,12.979"
       style="fill:#805224;fill-opacity:1;fill-rule:evenodd;stroke:none"
       id="path3359" /><path
       d="m 297.6367,133.6275 c 11.6053,0 23.2109,0 34.8162,0 11.6056,0 23.2109,0 34.8276,0 -0.2954,-2.0277 -0.591,-4.0556 -0.8751,-6.0747 -11.3439,0 -22.6992,0 -34.0319,0 -11.3326,0 -22.6882,0 -34.0208,0 -0.2387,2.0191 -0.4774,4.047 -0.716,6.0747"
       style="fill:#805224;fill-opacity:1;fill-rule:evenodd;stroke:none"
       id="path3361" /><path
       d="m 297.273,148.911 4.7171,-41.887 -9.2639,0 -6.3312,41.887 10.878,0 z"
       style="fill:#ffcc00;fill-opacity:1;fill-rule:evenodd;stroke:#000000;stroke-opacity:1;stroke-width:2.8346;stroke-linecap:butt;stroke-linejoin:miter;stroke-miterlimit:22.92558563;stroke-dasharray:none"
       id="path3363" /><path
       d="m 379.2044,148.911 -7.4681,-41.887 -9.2639,0 5.8654,41.887 10.8666,0 z"
       style="fill:#ffcc00;fill-opacity:1;fill-rule:evenodd;stroke:#000000;stroke-opacity:1;stroke-width:2.8346;stroke-linecap:butt;stroke-linejoin:miter;stroke-miterlimit:22.92558563;stroke-dasharray:none"
       id="path3365" /><path
       d="m 286.4404,156.0835 c 15.5837,0 31.1791,0 46.7628,0 15.5838,0 31.1902,0 46.7853,0 -0.6817,-3.8375 -1.3524,-7.6668 -2.0344,-11.4962 -14.9701,0 -29.9515,0 -44.9215,0 -14.9584,0 -29.9398,0 -44.8985,0 -0.557,3.8294 -1.1367,7.6587 -1.6937,11.4962 z"
       style="fill:#3d1f00;fill-opacity:0.5;fill-rule:evenodd;stroke:#3d1f00;stroke-opacity:0.5;stroke-width:2.8346;stroke-linecap:butt;stroke-linejoin:miter;stroke-miterlimit:22.92558563;stroke-dasharray:none"
       id="path3367" /><path
       d="m 280.6662,160.6921 c 17.1411,0 34.2819,0 51.423,0 17.1411,0 34.2936,0 51.4457,0 -0.716,-3.8378 -1.4207,-7.6754 -2.1367,-11.5047 -16.4818,0 -32.9522,0 -49.4226,0 -16.4705,0 -32.9522,0 -49.4113,0 -0.6364,3.8293 -1.2617,7.6669 -1.8981,11.5047 z"
       style="fill:#ffcc00;fill-opacity:1;fill-rule:evenodd;stroke:#000000;stroke-opacity:1;stroke-width:2.8346;stroke-linecap:butt;stroke-linejoin:miter;stroke-miterlimit:22.92558563;stroke-dasharray:none"
       id="path3369" /><path
       d="m 287.634,126.2205 c 12.367,-0.9133 18.5392,-8.882 19.2666,-19.1965 -5.3992,0 -10.7983,0 -16.1978,0 -1.0227,6.393 -2.0457,12.7948 -3.0688,19.1965 z"
       style="fill:#ffcc00;fill-opacity:1;fill-rule:evenodd;stroke:#000000;stroke-opacity:1;stroke-width:2.8346;stroke-linecap:round;stroke-linejoin:round;stroke-miterlimit:22.92558563;stroke-dasharray:none"
       id="path3371" /><path
       d="m 377.3061,126.2205 c -12.3897,-0.9133 -18.7892,-8.882 -19.7782,-19.1965 5.3992,0 10.7986,0 16.1977,0 1.1934,6.393 2.3871,12.7948 3.5805,19.1965 z"
       style="fill:#ffcc00;fill-opacity:1;fill-rule:evenodd;stroke:#000000;stroke-opacity:1;stroke-width:2.8346;stroke-linecap:round;stroke-linejoin:round;stroke-miterlimit:22.92558563;stroke-dasharray:none"
       id="path3373" /><path
       d="m 295.9886,118.0675 c 1.3354,0 2.569,-1.2277 2.7507,-2.7399 0.1817,-1.5123 -0.7163,-2.7315 -2.0233,-2.7315 -1.3071,0 -2.5461,1.2192 -2.7621,2.7315 -0.216,1.5122 0.6993,2.7399 2.0347,2.7399"
       style="fill:#000000;fill-opacity:1;fill-rule:evenodd;stroke:none"
       id="path3375" /><path
       d="m 368.7129,118.0675 c 1.3356,0 2.2107,-1.2277 1.955,-2.7399 -0.2557,-1.5123 -1.512,-2.7315 -2.819,-2.7315 -1.3071,0 -2.1938,1.2192 -1.9664,2.7315 0.2273,1.5122 1.4947,2.7399 2.8304,2.7399"
       style="fill:#000000;fill-opacity:1;fill-rule:evenodd;stroke:none"
       id="path3377" /><path
       d="m 317.7102,162.0831 c 2.4894,0 4.9788,0 7.4682,0 0,0.3685 -0.007,0.7375 -0.0114,1.1143 -0.0414,3.67 3.1144,6.6781 7.0246,6.6781 0,0 0,0 0,0 3.9101,0 7.0219,-3.0087 6.8881,-6.6781 -0.0136,-0.3773 -0.034,-0.7458 -0.0453,-1.1143 2.4891,0 4.9785,0 7.4679,0 -0.307,-5.2371 -0.6254,-10.4658 -0.9321,-15.6941 -0.3067,-5.2287 -0.6139,-10.4573 -0.932,-15.6858 -2.228,0 -4.4558,0 -6.6725,0 0,-0.1842 -0.0167,-0.3687 -0.0226,-0.5445 -0.1302,-3.6782 -2.9325,-6.6781 -6.2402,-6.6781 0,0 0,0 0,0 -3.3191,0 -6.0614,2.9996 -6.1155,6.6781 -0.002,0.1755 0,0.3603 0,0.5445 -2.2391,0 -4.4558,0 -6.6722,0 -0.1933,5.2285 -0.398,10.4573 -0.6023,15.6858 -0.2044,5.2285 -0.398,10.457 -0.6027,15.6941 z"
       style="fill:#3d1f00;fill-opacity:0.5;fill-rule:evenodd;stroke:#3d1f00;stroke-opacity:0.5;stroke-width:2.8346;stroke-linecap:butt;stroke-linejoin:miter;stroke-miterlimit:22.92558563;stroke-dasharray:none"
       id="path3379" /><path
       d="m 317.5398,166.6831 c 2.5234,0 5.0468,0 7.5816,0 0,0.3685 -0.007,0.7376 -0.0114,1.1143 -0.0411,3.6785 3.1601,6.6782 7.1383,6.6782 0,0 0,0 0,0 3.967,0 7.1246,-3.0087 6.9905,-6.6782 -0.0136,-0.3773 -0.0227,-0.7458 -0.0454,-1.1143 2.5234,0 5.0582,0 7.5929,0 -0.318,-5.237 -0.6307,-10.4652 -0.9434,-15.694 -0.3123,-5.2279 -0.625,-10.4573 -0.932,-15.6858 -2.2734,0 -4.5238,0 -6.7859,0 -0.0113,-0.1842 -0.0164,-0.3685 -0.0226,-0.5445 -0.1301,-3.6698 -2.9781,-6.6782 -6.3542,-6.6782 0,0 0,0 0,0 -3.3758,0 -6.1744,3.0082 -6.2175,6.6782 -0.002,0.1757 -0.0113,0.3603 0,0.5445 -2.2734,0 -4.5354,0 -6.7975,0 -0.193,5.2285 -0.3923,10.4576 -0.591,15.6858 -0.199,5.2285 -0.3977,10.457 -0.6024,15.694 z"
       style="fill:#ffcc00;fill-opacity:1;fill-rule:evenodd;stroke:#000000;stroke-opacity:1;stroke-width:2.8346;stroke-linecap:butt;stroke-linejoin:miter;stroke-miterlimit:22.92558563;stroke-dasharray:none"
       id="path3381" /><path
       d="m 332.0892,159.5441 c 0,0 0,0 0,0 1.9778,0 3.5578,-1.5835 3.5124,-3.5107 -0.0793,-3.36 -0.1479,-6.7204 -0.2273,-10.0803 -0.0454,-1.927 -1.6027,-3.5025 -3.4784,-3.5025 0,0 0,0 0,0 -1.8641,0 -3.3945,1.5755 -3.3985,3.5025 -0.007,3.3599 -0.004,6.7201 -0.0113,10.0803 -0.004,1.9267 1.6254,3.5107 3.6031,3.5107"
       style="fill:#000000;fill-opacity:1;fill-rule:evenodd;stroke:none"
       id="path3383" /><path
       d="m 332.0892,159.5441 c 0,0 0,0 0,0 1.9778,0 3.5578,-1.5835 3.5124,-3.5107 -0.0793,-3.36 -0.1479,-6.7204 -0.2273,-10.0803 -0.0454,-1.927 -1.6027,-3.5025 -3.4784,-3.5025 0,0 0,0 0,0 -1.8641,0 -3.3945,1.5755 -3.3985,3.5025 -0.007,3.3599 -0.004,6.7201 -0.0113,10.0803 -0.004,1.9267 1.6254,3.5107 3.6031,3.5107"
       style="fill:#000000;fill-opacity:1;fill-rule:evenodd;stroke:none"
       id="path3385" /><path
       d="m 284.3603,158.1616 c 5.0582,0 10.1279,0 15.1861,0 5.0581,0 10.1389,0 15.2087,0 0.0794,-1.6926 0.159,-3.3769 0.2387,-5.061 -4.9788,0 -9.9686,0 -14.9361,0 -4.9671,0 -9.9572,0 -14.9244,0 -0.25,1.6841 -0.523,3.3684 -0.773,5.061"
       style="fill:#ffffcc;fill-opacity:1;fill-rule:evenodd;stroke:none"
       id="path3387" /><path
       d="m 349.6054,158.1616 c 5.0581,0 10.1279,0 15.186,0 5.0581,0 10.139,0 15.2087,0 -0.307,-1.6926 -0.6026,-3.3769 -0.8867,-5.061 -4.9787,0 -9.9685,0 -14.9473,0 -4.9672,0 -9.9459,0 -14.9131,0 0.1137,1.6841 0.2273,3.3684 0.3524,5.061"
       style="fill:#ffffcc;fill-opacity:1;fill-rule:evenodd;stroke:none"
       id="path3389" /><path
       d="m 332.2142,171.0485 c 1.9041,0 3.4158,-1.4412 3.3761,-3.2174 -0.0397,-1.7761 -1.5973,-3.2176 -3.4557,-3.2176 -1.8584,0 -3.3531,1.4415 -3.3531,3.2176 0,1.7762 1.5287,3.2174 3.4327,3.2174"
       style="fill:#ffffcc;fill-opacity:1;fill-rule:evenodd;stroke:none"
       id="path3391" /><path
       d="m 287.0045,202.7733 90.8725,0 0,-1.8414 -90.8725,0 0,1.8414 z"
       style="fill:#ffcc00;fill-opacity:1;fill-rule:evenodd;stroke:none"
       id="path3393" /><path
       d="m 325.7926,189.1568 c 2.9234,0 5.294,-0.7215 5.294,-1.6113 0,-0.8898 -2.3706,-1.6112 -5.294,-1.6112 -2.9233,0 -5.294,0.7214 -5.294,1.6112 0,0.8898 2.3707,1.6113 5.294,1.6113"
       style="fill:#ffffff;fill-opacity:1;fill-rule:evenodd;stroke:none"
       id="path3395" /><path
       d="m 294.0259,171.7736 c 2.6388,1.258 5.089,1.6271 5.472,0.824 0.383,-0.8033 -1.4465,-2.4746 -4.0853,-3.7329 -2.6388,-1.2581 -5.089,-1.6271 -5.472,-0.8241 -0.383,0.8034 1.4465,2.4747 4.0853,3.733"
       style="fill:#ffffff;fill-opacity:1;fill-rule:evenodd;stroke:none"
       id="path3397" /><path
       d="m 351.0717,113.9312 c 5.4629,0.036 9.9057,-1.8672 9.9216,-4.25 0.0156,-2.3825 -4.402,-4.3441 -9.8649,-4.3801 -5.4626,-0.036 -9.9057,1.8669 -9.9213,4.2497 -0.0158,2.3828 4.4017,4.3444 9.8646,4.3804 z"
       style="fill:#ffcc00;fill-opacity:1;fill-rule:evenodd;stroke:#000000;stroke-opacity:1;stroke-width:2.8346;stroke-linecap:round;stroke-linejoin:round;stroke-miterlimit:22.92558563;stroke-dasharray:none"
       id="path3399" /><path
       d="m 351.0717,117.9054 c 5.4629,0.036 9.9057,-1.8672 9.9216,-4.25 0.0156,-2.3825 -4.402,-4.3441 -9.8649,-4.3801 -5.4626,-0.036 -9.9057,1.8669 -9.9213,4.2497 -0.0158,2.3828 4.4017,4.3444 9.8646,4.3804 z"
       style="fill:#ffff66;fill-opacity:1;fill-rule:evenodd;stroke:#000000;stroke-opacity:1;stroke-width:2.8346;stroke-linecap:round;stroke-linejoin:round;stroke-miterlimit:22.92558563;stroke-dasharray:none"
       id="path3401" /><path
       d="m 352.2869,115.4854 c 2.9183,-0.1748 5.2413,-1.0369 5.1883,-1.9252 -0.0533,-0.8881 -2.463,-1.4664 -5.381,-1.2912 -2.9183,0.1749 -5.2413,1.0369 -5.188,1.925 0.053,0.8884 2.4627,1.4666 5.3807,1.2914"
       style="fill:#ffffff;fill-opacity:1;fill-rule:evenodd;stroke:none"
       id="path3403" /><path
       d="m 334.76,115.524 c 5.0667,2.0429 9.8983,1.9074 10.7893,-0.3025 0.8909,-2.2101 -2.4954,-5.6588 -7.562,-7.7017 -5.0667,-2.0426 -9.8983,-1.9071 -10.7893,0.3028 -0.8909,2.2098 2.4954,5.6588 7.562,7.7014 z"
       style="fill:#ffcc00;fill-opacity:1;fill-rule:evenodd;stroke:#000000;stroke-opacity:1;stroke-width:2.8346;stroke-linecap:round;stroke-linejoin:round;stroke-miterlimit:22.92558563;stroke-dasharray:none"
       id="path3405" /><path
       d="m 333.2982,119.2198 c 5.0667,2.0427 9.8983,1.9072 10.7892,-0.3027 0.891,-2.2099 -2.4953,-5.6588 -7.562,-7.7018 -5.0666,-2.0426 -9.8983,-1.9071 -10.7892,0.3028 -0.8909,2.2099 2.4954,5.6588 7.562,7.7017 z"
       style="fill:#ffff66;fill-opacity:1;fill-rule:evenodd;stroke:#000000;stroke-opacity:1;stroke-width:2.8346;stroke-linecap:round;stroke-linejoin:round;stroke-miterlimit:22.92558563;stroke-dasharray:none"
       id="path3407" /><path
       d="m 335.6331,117.9431 c 2.6476,1.2396 5.1004,1.5914 5.4777,0.7855 0.3773,-0.8056 -1.4638,-2.4642 -4.1114,-3.7038 -2.6476,-1.2396 -5.1004,-1.5914 -5.4777,-0.7855 -0.3773,0.8056 1.4638,2.4642 4.1114,3.7038"
       style="fill:#ffffff;fill-opacity:1;fill-rule:evenodd;stroke:none"
       id="path3409" /><path
       d="m 367.4075,175.0484 c 5.2237,-1.5995 8.894,-4.7443 8.1964,-7.0228 -0.6976,-2.2782 -5.4995,-2.8287 -10.7232,-1.2294 -5.2237,1.5996 -8.894,4.7447 -8.1964,7.0229 0.6979,2.2784 5.4998,2.8289 10.7232,1.2293 z"
       style="fill:#ffff66;fill-opacity:1;fill-rule:evenodd;stroke:#000000;stroke-opacity:1;stroke-width:2.8346;stroke-linecap:round;stroke-linejoin:round;stroke-miterlimit:22.92558563;stroke-dasharray:none"
       id="path3411" /><path
       d="m 364.8396,173.7802 c 2.8378,-0.7021 4.9657,-1.9718 4.752,-2.8355 -0.2135,-0.8637 -2.6881,-0.9947 -5.5259,-0.2928 -2.8377,0.7021 -4.9657,1.9718 -4.752,2.8355 0.2135,0.8637 2.6881,0.9947 5.5259,0.2928"
       style="fill:#ffffff;fill-opacity:1;fill-rule:evenodd;stroke:none"
       id="path3413" /><path
       d="m 314.4135,197.6754 6.1815,-7.5758 7.147,6.673 -5.2945,-8.2196 8.5549,-4.7353 -9.4538,2.4956 -1.8598,-9.5998 -0.5479,9.7625 -9.7045,-1.1979 9.1151,3.5379 -4.138,8.8594 z"
       style="fill:#ffffff;fill-opacity:1;fill-rule:evenodd;stroke:none"
       id="path3415" /><path
       d="m 365.106,176.0726 5.5443,-6.7949 6.41,5.985 -4.7489,-7.3723 7.6731,-4.2469 -8.4792,2.2383 -1.6679,-8.61 -0.4916,8.7559 -8.7038,-1.0743 8.1754,3.1731 -3.7114,7.9461 z"
       style="fill:#ffffff;fill-opacity:1;fill-rule:evenodd;stroke:none"
       id="path3417" /><path
       d="m 22.0592,291.6853 375.4091,0 c 8.4348,0 15.3355,-6.9012 15.3355,-15.3351 l 0,-255.0626 c 0,-8.4339 -6.9012,-15.3354 -15.3355,-15.3354 l -375.4091,0 c -8.4342,0 -15.3354,6.9009 -15.3354,15.3354 l 0,255.0626 c 0,8.4345 6.9006,15.3351 15.3354,15.3351 z"
       style="fill:none;stroke:#cccccc;stroke-opacity:1;stroke-width:4.252;stroke-linecap:butt;stroke-linejoin:miter;stroke-miterlimit:22.92558563;stroke-dasharray:8.5,4.25;stroke-dashoffset:0"
       id="path3419" /><path
       d="m 376.6711,277.1943 15.5685,1.3621 c 1.1718,0.1026 2.2793,-0.2838 3.1195,-0.9887 0.8413,-0.7059 1.4148,-1.7306 1.5174,-2.9036 l 1.362,-15.5684 c 0.1026,-1.1721 -0.2837,-2.2796 -0.989,-3.1198 -0.7058,-0.8411 -1.7305,-1.4145 -2.9035,-1.5171 l -2.2887,-0.2004 0.127,-1.4511 2.0843,0.1823 0.1159,-1.3264 -15.1577,-1.326 -0.1162,1.3263 2.0843,0.1823 -0.127,1.4511 -2.2904,-0.2002 c -1.1718,-0.1026 -2.2796,0.2838 -3.1195,0.9887 -0.8413,0.7059 -1.4148,1.7306 -1.5174,2.9039 l -1.362,15.5681 c -0.1026,1.1721 0.2837,2.2796 0.9887,3.1198 0.7058,0.8411 1.7306,1.4145 2.9038,1.5171 z m 13.6809,-23.085 -7.5787,-0.6631 0.127,-1.451 7.5787,0.663 -0.127,1.4511 z m 2.0137,22.9841 -15.5684,-1.362 c -0.7702,-0.0672 -1.4426,-0.4434 -1.9055,-0.995 -0.4637,-0.5527 -0.7177,-1.2815 -0.6503,-2.0528 l 1.3621,-15.5682 c 0.0675,-0.7702 0.4436,-1.4425 0.9952,-1.9054 0.5525,-0.4638 1.2813,-0.7178 2.0526,-0.6503 l 15.5684,1.362 c 0.7699,0.0672 1.4426,0.4434 1.9055,0.9953 0.4635,0.5524 0.7177,1.2812 0.6503,2.0525 l -1.3621,15.5682 c -0.0675,0.7702 -0.4436,1.4426 -0.9952,1.9054 -0.5528,0.4638 -1.2813,0.7178 -2.0526,0.6503 z m -11.8341,-15.1784 0.0865,-0.9896 0.303,0.0264 c 0.1423,0.0125 0.2409,0.0573 0.2951,0.1358 0.0538,0.0785 0.0728,0.2078 0.0572,0.3872 -0.0164,0.1882 -0.0566,0.3163 -0.1218,0.3844 -0.0655,0.068 -0.1721,0.0949 -0.317,0.0822 l -0.303,-0.0264 z m 0.3325,-3.8004 0.303,0.0267 c 0.148,0.013 0.2481,0.0578 0.2994,0.1346 0.051,0.0768 0.0683,0.2101 0.0516,0.4011 l -0.0247,0.2815 c -0.0161,0.1854 -0.0564,0.3135 -0.1216,0.3815 -0.0655,0.0698 -0.1721,0.0978 -0.3172,0.0851 l -0.303,-0.0264 0.1125,-1.2841 z m -2.5903,-1.8417 -0.612,6.9974 4.4249,0.3872 c 0.6378,0.0558 1.1044,-0.0338 1.4,-0.2699 0.2971,-0.2358 0.4706,-0.6477 0.5222,-1.2365 0.0408,-0.4682 -0.0156,-0.8333 -0.169,-1.0958 -0.1536,-0.2625 -0.43,-0.4618 -0.8277,-0.5993 0.4119,-0.0592 0.7195,-0.2321 0.9224,-0.517 0.203,-0.2846 0.3311,-0.7248 0.3833,-1.3224 0.0581,-0.6621 -0.0335,-1.1389 -0.2756,-1.4323 -0.242,-0.2917 -0.6885,-0.4669 -1.3433,-0.5241 l -4.4252,-0.3873 z m 9.0408,6.2354 0.0868,-0.9896 0.303,0.0267 c 0.142,0.0125 0.241,0.0572 0.2948,0.1358 0.0542,0.0785 0.0731,0.2075 0.0576,0.3869 -0.0168,0.1882 -0.0567,0.3163 -0.1222,0.3847 -0.0652,0.068 -0.1718,0.0949 -0.3166,0.0822 l -0.3034,-0.0267 z m 1.1708,-5.3419 -0.2087,2.3857 c -0.0161,0.1851 -0.0564,0.3132 -0.1216,0.3815 -0.0655,0.0695 -0.172,0.0978 -0.3172,0.085 l -0.303,-0.0263 0.2526,-2.8868 -2.7304,-0.239 -0.612,6.9973 4.4249,0.387 c 0.6347,0.0555 1.0984,-0.034 1.3941,-0.2688 0.2939,-0.2332 0.4674,-0.6465 0.5193,-1.2381 0.0411,-0.4711 -0.0136,-0.8377 -0.1672,-1.0987 -0.1523,-0.2608 -0.4261,-0.4584 -0.8207,-0.5956 0.4119,-0.0595 0.7195,-0.2324 0.9224,-0.517 0.2027,-0.2846 0.3311,-0.7251 0.3833,-1.3224 l 0.1576,-1.8011 -2.7734,-0.2427 z m 3.3967,0.2971 -0.6123,6.9973 2.7304,0.239 0.6122,-6.9973 -2.7303,-0.239 z m -14.303,6.4749 -0.8493,9.7067 3.7876,0.3313 0.849,-9.7066 -3.7873,-0.3314 z m 9.4558,0.8271 -1.88,5.2181 0.4675,-5.3416 -3.3673,-0.2946 -0.8493,9.7067 4.7917,0.4193 1.4023,-3.9345 0.6877,4.1173 4.8095,0.4209 0.8493,-9.7069 -3.3851,-0.296 -0.4672,5.3414 -0.9275,-5.4635 -2.1316,-0.1866 z"
       style="fill:#cccccc;fill-opacity:1;fill-rule:nonzero;stroke:none"
       id="path3421" /><path
       d="m 377.0308,238.0467 c 0,-0.5306 -0.2046,-0.9498 -0.6139,-1.2583 -0.3841,-0.2931 -0.8743,-0.4396 -1.4707,-0.4396 -0.9045,0 -1.5868,0.2375 -2.0466,0.7126 l 0.849,0.849 c 0.2528,-0.2529 0.6545,-0.379 1.2053,-0.379 0.5153,0 0.7733,0.1616 0.7733,0.485 0,0.2628 -0.1542,0.417 -0.4626,0.4623 l -0.6517,0.091 c -0.9703,0.1367 -1.4556,0.6571 -1.4556,1.5616 0,0.5004 0.1783,0.9097 0.5346,1.228 0.356,0.3183 0.8348,0.4774 1.4363,0.4774 0.7832,0 1.3896,-0.2146 1.8193,-0.6444 l -0.834,-0.8336 c -0.2123,0.2123 -0.5533,0.3183 -1.0233,0.3183 -0.2123,0 -0.379,-0.053 -0.5003,-0.1593 -0.1009,-0.0958 -0.1516,-0.2095 -0.1516,-0.341 0,-0.0958 0.038,-0.182 0.1139,-0.2577 0.0757,-0.0759 0.197,-0.1264 0.3637,-0.1516 l 0.652,-0.091 c 0.4952,-0.0706 0.8628,-0.235 1.1029,-0.4927 0.2401,-0.2577 0.36,-0.6366 0.36,-1.137 z m 4.8501,2.009 c 0,-0.4751 -0.1567,-0.8745 -0.47,-1.198 -0.3438,-0.3588 -0.801,-0.538 -1.3719,-0.538 l -0.8113,0 0,-1.9253 -1.3263,0 0,5.3969 2.1376,0 c 0.5709,0 1.0281,-0.1794 1.3719,-0.538 0.3133,-0.3237 0.47,-0.7228 0.47,-1.1976 z m -1.3266,0 c 0,0.1465 -0.053,0.2741 -0.159,0.3826 -0.1063,0.1086 -0.2452,0.163 -0.417,0.163 l -0.7506,0 0,-1.0916 0.7506,0 c 0.1718,0 0.3107,0.0544 0.417,0.163 0.106,0.1086 0.159,0.2364 0.159,0.383 z m 6.3672,-3.6613 -1.5387,0 -0.9552,2.0087 -0.4471,0 0,-2.0087 -1.3266,0 0,5.3969 2.1376,0 c 0.5709,0 1.0284,-0.1794 1.372,-0.538 0.3132,-0.3237 0.47,-0.7228 0.47,-1.1976 0,-0.6472 -0.2931,-1.1172 -0.8793,-1.4103 l 1.1673,-2.251 z m -1.6146,3.6613 c 0,0.1465 -0.053,0.2741 -0.1591,0.3826 -0.1063,0.1086 -0.2452,0.163 -0.4169,0.163 l -0.7504,0 0,-1.0916 0.7504,0 c 0.1717,0 0.3106,0.0544 0.4169,0.163 0.1061,0.1086 0.1591,0.2364 0.1591,0.383 z m 3.6158,-3.6613 -1.3266,0 0,5.3969 1.3266,0 0,-5.3969 z m 4.7526,4.2146 -1.3263,0 0,-4.2146 -1.3266,0 0,4.2146 -1.3267,0 0,1.1823 3.9796,0 0,-1.1823 z m 4.4419,-4.2146 -3.6686,0 0,5.3969 3.6686,0 0,-1.1823 -2.3423,0 0,-0.9023 2.0013,0 0,-1.1823 -2.0013,0 0,-0.9476 2.3423,0 0,-1.1824 z"
       style="fill:#cccccc;fill-opacity:1;fill-rule:nonzero;stroke:none"
       id="path3423" /><path
       d="m 377.2355,230.1083 -1.2348,0 -0.2228,0.7152 -1.4777,0 -0.2361,-0.7152 -1.2351,0 1.7479,4.8045 0.911,0 1.7476,-4.8045 z m -1.768,1.7005 -0.4048,1.2821 -0.4317,-1.2821 0.8365,0 z m 5.5131,2.0515 -1.1809,0 0,-3.752 -1.1809,0 0,3.752 -1.1809,0 0,1.0525 3.5427,0 0,-1.0525 z m 3.9476,0 -1.181,0 0,-3.752 -1.1809,0 0,3.752 -1.1809,0 0,1.0525 3.5428,0 0,-1.0525 z m 4.6088,-3.752 -1.235,0 -0.2226,0.7152 -1.478,0 -0.2361,-0.7152 -1.2347,0 1.7478,4.8045 0.9108,0 1.7478,-4.8045 z m -1.768,1.7005 -0.405,1.2821 -0.4317,-1.2821 0.8367,0 z m 5.7425,-0.1754 c -0.0856,-0.5128 -0.2971,-0.9066 -0.6344,-1.181 -0.3192,-0.2565 -0.7152,-0.3846 -1.1877,-0.3846 -0.5307,0 -0.976,0.18 -1.336,0.54 -0.2248,0.2248 -0.3688,0.515 -0.4317,0.8705 -0.036,0.1979 -0.0542,0.542 -0.0542,1.0324 0,0.4904 0.0182,0.8345 0.0542,1.0324 0.0629,0.3554 0.2069,0.6454 0.4317,0.8705 0.36,0.3597 0.8053,0.5397 1.336,0.5397 0.4725,0 0.8685,-0.1281 1.1877,-0.3847 0.3373,-0.2744 0.5488,-0.6678 0.6344,-1.1809 l -1.2011,0 c -0.0947,0.3422 -0.2993,0.5131 -0.6142,0.5131 -0.207,0 -0.362,-0.0678 -0.4655,-0.2024 -0.1216,-0.1576 -0.1823,-0.5533 -0.1823,-1.1877 0,-0.6344 0.0607,-1.0301 0.1823,-1.1877 0.1035,-0.135 0.2585,-0.2024 0.4655,-0.2024 0.3149,0 0.5195,0.1709 0.6142,0.5128 l 1.2011,0 z m 4.6763,-1.5251 -1.3765,0 -1.1067,1.9704 -0.405,-0.4655 0,-1.5049 -1.1673,0 0,4.8045 1.1673,0 0,-1.7005 1.3901,1.7005 1.4439,0 -1.6395,-1.9432 1.6937,-2.8613 z"
       style="fill:#cccccc;fill-opacity:1;fill-rule:nonzero;stroke:none"
       id="path3425" /><path
       d="m 372.5359,246.011 25.945,0 0,-1.3267 -25.945,0 0,1.3267 z"
       style="fill:#cccccc;fill-opacity:1;fill-rule:evenodd;stroke:none"
       id="path3427" /></g></svg>